<svg width="32" height="32" viewBox="0 0 32 32" fill="none" xmlns="http://www.w3.org/2000/svg">
<path fill-rule="evenodd" clip-rule="evenodd" d="M0.948712 13.7423L10.2037 4.47135L12.9097 7.19339C12.5254 8.55442 13.1499 10.0435 14.3988 10.7641V19.6347C13.4381 20.1791 12.7976 21.2199 12.7976 22.4048C12.7976 24.1734 14.2314 25.6072 16 25.6072C17.7686 25.6072 19.2024 24.1734 19.2024 22.4048C19.2024 21.2199 18.5619 20.1791 17.6012 19.6347V11.8529L20.9157 15.1994C20.8036 15.4396 20.8036 15.7118 20.8036 16C20.8036 17.7686 22.2374 19.2024 24.006 19.2024C25.7746 19.2024 27.2084 17.7686 27.2084 16C27.2084 14.2314 25.7746 12.7976 24.006 12.7976C23.7178 12.7976 23.4456 12.7976 23.2054 12.9097L19.0903 8.7946C19.5066 7.30548 18.7381 5.67225 17.2489 5.04779C16.5604 4.79159 15.8399 4.72755 15.1994 4.90368L12.4774 2.19765L13.7423 0.948712C14.9912 -0.316237 17.0088 -0.316237 18.2577 0.948712L31.0513 13.7423C32.3162 14.9912 32.3162 17.0088 31.0513 18.2577L18.2577 31.0513C17.0088 32.3162 14.9912 32.3162 13.7423 31.0513L0.948712 18.2577C-0.316237 17.0088 -0.316237 14.9912 0.948712 13.7423Z" fill="#D61F21"/>
</svg>
